<svg xmlns="http://www.w3.org/2000/svg" width="519.287" height="369.212" viewBox="0 0 519.287 369.212"><g transform="translate(-95 -29.382)"><path d="M80.75,26.165q0,5.774-5.454,9.624,5.454,3.85,5.454,9.624A12.815,12.815,0,0,1,67.918,58.245H48.67V13.333H67.918A12.367,12.367,0,0,1,77,17.087,12.367,12.367,0,0,1,80.75,26.165ZM55.086,19.749V32.581H67.918a6.463,6.463,0,0,0,6.416-6.416,6.463,6.463,0,0,0-6.416-6.416Zm0,19.248V51.829H67.918A6.4,6.4,0,0,0,72.441,40.89,6.173,6.173,0,0,0,67.918,39Zm69.626,6.416A12.925,12.925,0,0,1,111.88,58.245h-6.416A12.925,12.925,0,0,1,92.632,45.413V26.165a12.346,12.346,0,0,1,3.785-9.047,12.346,12.346,0,0,1,9.047-3.785h6.416a12.346,12.346,0,0,1,9.047,3.785,12.346,12.346,0,0,1,3.785,9.047Zm-6.416,0V26.165a6.463,6.463,0,0,0-6.416-6.416h-6.416a6.463,6.463,0,0,0-6.416,6.416V45.413a6.463,6.463,0,0,0,6.416,6.416h6.416a6.463,6.463,0,0,0,6.416-6.416Zm50.378,0a12.925,12.925,0,0,1-12.832,12.832h-6.416a12.925,12.925,0,0,1-12.832-12.832V26.165a12.346,12.346,0,0,1,3.785-9.047,12.346,12.346,0,0,1,9.047-3.785h6.416a12.346,12.346,0,0,1,9.047,3.785,12.346,12.346,0,0,1,3.785,9.047Zm-6.416,0V26.165a6.463,6.463,0,0,0-6.416-6.416h-6.416a6.463,6.463,0,0,0-6.416,6.416V45.413a6.463,6.463,0,0,0,6.416,6.416h6.416a6.463,6.463,0,0,0,6.416-6.416Zm50.378,12.832h-6.416L186.973,39V58.245h-6.416V13.333h6.416V32.581l19.248-19.248h6.416v2.374L192.555,35.789l20.082,20.018Zm43.962,0h-4.812L240.56,47.017,229.332,58.245H224.52V13.333h6.416V47.017l6.416-6.416v-8.02h6.416V40.6l6.416,6.416V13.333H256.6Zm43.962,0h-32.08V51.829h12.832V19.749H268.482V13.333h32.08v6.416H287.73v32.08h12.832Zm43.962,0h-32.08V46.761l25.664-25.6V19.749H312.445V13.333h32.08V23.727L318.861,49.391v2.438h25.664Zm18.3-12.832V58.245h-6.416V37.393l12.062-24.06h8.02l12,24.06V58.245h-6.416V45.413Zm9.624-25.664L362.823,39h19.248Zm53.586,38.5V45.413A6.463,6.463,0,0,0,419.617,39H406.785V58.245h-6.416V13.333h19.248a12.367,12.367,0,0,1,9.079,3.753,12.367,12.367,0,0,1,3.753,9.079q0,5.774-5.454,9.624,5.454,3.85,5.454,9.624V58.245ZM406.785,32.581h12.832a6.463,6.463,0,0,0,6.416-6.416,6.463,6.463,0,0,0-6.416-6.416H406.785Zm69.626,12.832A12.925,12.925,0,0,1,463.58,58.245H444.332V13.333H463.58a12.346,12.346,0,0,1,9.047,3.785,12.346,12.346,0,0,1,3.785,9.047Zm-6.416,0V26.165a6.463,6.463,0,0,0-6.416-6.416H450.748v32.08H463.58A6.463,6.463,0,0,0,470,45.413Z" transform="translate(92.887 340.348)" fill="#1890ff"/><g transform="translate(95 6.176)"><g transform="translate(0 97.996)"><g transform="translate(0 0)"><rect width="36.553" height="19.017" transform="translate(45.192 96.032)" fill="#1890ff"/><rect width="36.553" height="19.017" transform="translate(206.586 33.636)" fill="#1890ff"/><rect width="36.553" height="19.017" transform="translate(206.586 161.847)" fill="#1890ff"/><path d="M214.858,358.446h51.086a43.068,43.068,0,0,0-6.348,22.593c0,22.9,17.571,41.532,39.161,41.532h206l-6.915-13.94a62.553,62.553,0,0,1,.045-55.28l6.685-13.844h-50.9a43.388,43.388,0,0,0,.062-45.077h51.024l-6.915-13.935a62.527,62.527,0,0,1,.025-55.237l6.792-13.888h-205.9C277.166,211.37,259.6,230,259.6,252.9a43.074,43.074,0,0,0,6.287,22.484H229.706l-14.766.109,6.874,13.918a62.455,62.455,0,0,1-.045,55.1Zm261.744.078a82.959,82.959,0,0,0,0,45.029H298.757c-11.707,0-21.229-10.1-21.229-22.515s9.522-22.515,21.229-22.515ZM298.757,230.388H476.6a82.959,82.959,0,0,0,0,45.029H421.4c-.181,0-.357-.03-.542-.03H298.215c-11.452-.309-20.687-10.264-20.687-22.484C277.527,240.487,287.05,230.388,298.757,230.388Zm-.542,64.016c.181,0,.357.026.542.026H421.4c11.456.314,20.687,10.269,20.687,22.484,0,12.416-9.522,22.515-21.229,22.515H243.01A82.826,82.826,0,0,0,243,294.4Z" transform="translate(-214.858 -211.37)" fill="#1890ff"/></g></g><g transform="translate(455.996 320.105) rotate(-161)"><path d="M3.461,0A3.459,3.459,0,0,0,0,3.628L.487,31.157a3.775,3.775,0,0,0,3.591,3.758,3.459,3.459,0,0,0,3.46-3.627L7.051,3.758A3.773,3.773,0,0,0,3.461,0Zm0,0" transform="translate(164.531 219.843)" fill="#1890ff"/><path d="M4.078,34.914a3.458,3.458,0,0,0,3.46-3.627L7.051,3.758A3.775,3.775,0,0,0,3.461,0,3.459,3.459,0,0,0,0,3.628L.487,31.157A3.773,3.773,0,0,0,4.078,34.914Zm0,0" transform="translate(162.327 95.239)" fill="#1890ff"/><path d="M20.008,26.068a3.414,3.414,0,0,0,4.985.092,3.818,3.818,0,0,0-.092-5.221L5.973,1.128A3.568,3.568,0,0,0,3.46,0,3.312,3.312,0,0,0,.986,1.035a3.824,3.824,0,0,0,.092,5.223Zm0,0" transform="translate(197.048 206.233)" fill="#1890ff"/><path d="M0,3.628A3.775,3.775,0,0,0,3.591,7.386l26.283.487a3.459,3.459,0,0,0,3.46-3.627A3.775,3.775,0,0,0,29.743.487L3.461,0A3.459,3.459,0,0,0,0,3.628Zm0,0" transform="translate(210.013 172.163)" fill="#1890ff"/><path d="M33.334,4.245A3.774,3.774,0,0,0,29.744.487L3.461,0A3.459,3.459,0,0,0,0,3.628,3.775,3.775,0,0,0,3.591,7.386l26.283.487A3.458,3.458,0,0,0,33.334,4.245Zm0,0" transform="translate(91.049 169.96)" fill="#1890ff"/><path d="M6.065,25.472,24.3,6.349a3.818,3.818,0,0,0-.092-5.221A3.565,3.565,0,0,0,21.7,0a3.308,3.308,0,0,0-2.473,1.035L.986,20.158a3.822,3.822,0,0,0,.092,5.222A3.416,3.416,0,0,0,6.065,25.472Zm0,0" transform="translate(195.834 118.47)" fill="#1890ff"/><path d="M21.7,0a3.3,3.3,0,0,0-2.473,1.035L.987,20.158a3.818,3.818,0,0,0,.092,5.221,3.414,3.414,0,0,0,4.985.092L24.306,6.351a3.82,3.82,0,0,0-.092-5.223A3.565,3.565,0,0,0,21.7,0Zm0,0" transform="translate(113.271 205.02)" fill="#1890ff"/><path d="M1.078,23.082l159.1,166.5c5.992,6.269,15.564,6.446,21.338.4s5.595-16.079-.4-22.35L40.229,20.183a3.414,3.414,0,0,0-4.985-.092,3.818,3.818,0,0,0,.092,5.222L144.32,139.37l-11.155,11.694L8.511,20.611l11.157-11.7,6.25,6.539a3.414,3.414,0,0,0,4.985.092,3.82,3.82,0,0,0-.094-5.222l-8.788-9.2A3.573,3.573,0,0,0,19.508,0a3.31,3.31,0,0,0-2.473,1.037L.986,17.861A3.822,3.822,0,0,0,1.078,23.082ZM149.4,144.684l26.826,28.074a8.716,8.716,0,0,1,.21,11.9,7.793,7.793,0,0,1-11.366-.21l-26.826-28.074Zm0,0" transform="translate(0 0)" fill="#1890ff"/></g></g></g></svg>